<svg width="32" height="27" viewBox="0 0 32 27" fill="none" xmlns="http://www.w3.org/2000/svg">
<path d="M10.052 26.0019C22.128 26.0019 28.734 15.9959 28.734 7.33387C28.734 7.05387 28.734 6.76987 28.722 6.48987C30.0081 5.55885 31.1181 4.40618 32 3.08587C30.7986 3.61558 29.5255 3.96469 28.222 4.12187C29.5951 3.30115 30.6234 2.00981 31.116 0.487875C29.826 1.25212 28.414 1.78862 26.942 2.07387C25.9524 1.01992 24.6428 0.32171 23.2162 0.0873895C21.7895 -0.146931 20.3254 0.0957175 19.0507 0.777749C17.7759 1.45978 16.7616 2.54313 16.1649 3.85999C15.5682 5.17686 15.4224 6.65374 15.75 8.06188C13.1395 7.93098 10.5856 7.25281 8.25409 6.07136C5.92254 4.88991 3.86537 3.23156 2.216 1.20387C1.37868 2.65004 1.12315 4.36068 1.50129 5.98841C1.87944 7.61614 2.86291 9.03893 4.252 9.96787C3.21108 9.93251 2.19304 9.65299 1.28 9.15187V9.24187C1.28179 10.7568 1.80661 12.2247 2.76575 13.3974C3.72488 14.5701 5.0595 15.3756 6.544 15.6779C5.98053 15.8331 5.39846 15.9105 4.814 15.9079C4.40197 15.9091 3.99076 15.8709 3.586 15.7939C4.00557 17.098 4.82255 18.2382 5.92249 19.0548C7.02244 19.8715 8.35027 20.3236 9.72 20.3479C7.39311 22.1755 4.5188 23.1667 1.56 23.1619C1.03864 23.1641 0.517646 23.134 0 23.0719C3.00303 24.9864 6.4906 26.003 10.052 26.0019Z" fill="white"/>
</svg>
