<svg width="32" height="23" viewBox="0 0 32 23" fill="none" xmlns="http://www.w3.org/2000/svg">
<path d="M16.102 0H16.28C17.924 0.006 26.254 0.0660003 28.5 0.67C29.179 0.854337 29.7977 1.21364 30.2943 1.71202C30.7909 2.21039 31.1481 2.83037 31.33 3.51C31.532 4.27 31.674 5.276 31.77 6.314L31.79 6.522L31.834 7.042L31.85 7.25C31.98 9.078 31.996 10.79 31.998 11.164V11.314C31.996 11.702 31.978 13.53 31.834 15.434L31.818 15.644L31.8 15.852C31.7 16.996 31.552 18.132 31.33 18.968C31.1486 19.6479 30.7917 20.2682 30.295 20.7666C29.7983 21.2651 29.1793 21.6242 28.5 21.808C26.18 22.432 17.362 22.476 16.14 22.478H15.856C15.238 22.478 12.682 22.466 10.002 22.374L9.662 22.362L9.488 22.354L9.146 22.34L8.804 22.326C6.584 22.228 4.47 22.07 3.496 21.806C2.81698 21.6224 2.19813 21.2636 1.70145 20.7655C1.20477 20.2674 0.847694 19.6475 0.666 18.968C0.444 18.134 0.296 16.996 0.196 15.852L0.18 15.642L0.164 15.434C0.0652952 14.0788 0.0105997 12.7207 0 11.362L0 11.116C0.004 10.686 0.02 9.2 0.128 7.56L0.142 7.354L0.148 7.25L0.164 7.042L0.208 6.522L0.228 6.314C0.324 5.276 0.466 4.268 0.668 3.51C0.849387 2.8301 1.20632 2.20982 1.70303 1.71136C2.19973 1.21291 2.81874 0.853785 3.498 0.67C4.472 0.41 6.586 0.25 8.806 0.15L9.146 0.136L9.49 0.124L9.662 0.118L10.004 0.104C11.9074 0.0427494 13.8116 0.00874573 15.716 0.00200009H16.102V0ZM12.8 6.42V16.056L21.114 11.24L12.8 6.42Z" fill="white"/>
</svg>
