<svg width="1025" height="396" viewBox="0 0 1025 396" fill="none" xmlns="http://www.w3.org/2000/svg">
<path d="M839.016 0H15C6.71573 0 0 6.71574 0 15V372C0 380.284 6.71571 387 15 387H839.016C847.3 387 854.016 380.284 854.016 372V15C854.016 6.71573 847.3 0 839.016 0Z" fill="#E6E6E6"/>
<path d="M829.705 35.3482H24.7775V142.03H829.705V35.3482Z" fill="white"/>
<path d="M395.22 50.7579H224.996V55.7591H395.22V50.7579Z" fill="#E6E6E6"/>
<path d="M487.859 69.0011H224.996V74.0023H487.859V69.0011Z" fill="#D9B13D"/>
<path d="M439.223 86.1887H224.996V91.19H439.223V86.1887Z" fill="#E6E6E6"/>
<path d="M350.058 103.311H224.996V108.313H350.058V103.311Z" fill="#E6E6E6"/>
<path d="M413.747 120.434H224.996V125.435H413.747V120.434Z" fill="#E6E6E6"/>
<path d="M168.254 48.9799H147.41V59.6481H168.254V48.9799Z" fill="#E6E6E6"/>
<path d="M168.254 66.1675H147.41V76.8358H168.254V66.1675Z" fill="#D9B13D"/>
<path d="M168.254 83.3552H147.41V94.0234H168.254V83.3552Z" fill="#E6E6E6"/>
<path d="M168.254 100.543H147.41V111.211H168.254V100.543Z" fill="#E6E6E6"/>
<path d="M168.254 117.731H147.41V128.399H168.254V117.731Z" fill="#E6E6E6"/>
<path d="M717.008 53H647.591V115H717.008V53Z" fill="#E6E6E6"/>
<path d="M829.354 157H24.6614V375H829.354V157Z" fill="white"/>
<path d="M204.598 166H183.591V188H204.598V166Z" fill="#E6E6E6"/>
<path d="M168.063 166H147.055V188H168.063V166Z" fill="#D9B13D"/>
<path d="M501.102 213C494.724 201.9 485.875 192.515 475.282 185.617C464.689 178.718 452.655 174.502 440.168 173.316C427.681 172.131 415.099 174.009 403.456 178.796C391.813 183.583 381.441 191.142 373.194 200.853L368.094 196.272C377.045 185.73 388.302 177.522 400.94 172.325C413.578 167.127 427.236 165.088 440.79 166.375C454.344 167.662 467.407 172.238 478.906 179.727C490.404 187.216 500.008 197.405 506.929 209.454L501.102 213Z" fill="#E6E6E6"/>
<path d="M504.298 303L498.709 299.166C506.988 286.571 511.607 271.846 512.035 256.688C512.462 241.531 508.68 226.559 501.124 213.5L506.921 210C515.125 224.177 519.232 240.431 518.768 256.886C518.304 273.341 513.288 289.328 504.298 303Z" fill="#D9B13D"/>
<path d="M369.364 313C355.143 296.945 347.22 276.187 347.088 254.637C346.956 233.087 354.624 212.232 368.647 196L373.828 200.576C360.91 215.53 353.846 234.742 353.968 254.594C354.09 274.447 361.388 293.569 374.488 308.36L369.364 313Z" fill="#D9B13D"/>
<path d="M432.934 342C420.87 341.991 408.943 339.366 397.928 334.296C386.914 329.226 377.06 321.825 369.008 312.574L374.04 307.932C382.073 317.174 392.05 324.402 403.211 329.067C414.371 333.731 426.418 335.708 438.434 334.846C450.449 333.985 462.114 330.307 472.539 324.094C482.963 317.882 491.871 309.299 498.582 299L504.189 302.882C496.345 314.926 485.741 324.796 473.314 331.618C460.886 338.441 447.018 342.006 432.934 342Z" fill="#D9B13D"/>
<path d="M717.008 189H647.591V259H717.008V189Z" fill="#E6E6E6"/>
<path d="M213.732 213H144.315V292H213.732V213Z" fill="#E6E6E6"/>
<path d="M844.471 0H9.28196C4.15568 0 0 4.15568 0 9.28197C0 14.4083 4.15567 18.5639 9.28196 18.5639H844.471C849.598 18.5639 853.753 14.4083 853.753 9.28197C853.753 4.15568 849.598 0 844.471 0Z" fill="#D9B13D"/>
<path d="M961.797 387H971.698L976.409 353L961.795 353.001L961.797 387Z" fill="#FFB8B8"/>
<path d="M959.055 384.001L978.58 384C981.88 384 985.045 385.225 987.379 387.404C989.712 389.583 991.023 392.539 991.024 395.621V395.999L959.056 396L959.055 384.001Z" fill="#2F2E41"/>
<path d="M937.134 354.058L944.436 360L973.669 337.769L962.892 329L937.134 354.058Z" fill="#FFB8B8"/>
<path d="M937.672 350L952.228 361.881C954.688 363.889 956.154 366.687 956.302 369.66C956.451 372.632 955.271 375.535 953.021 377.731L952.745 378L928.913 358.548L937.672 350Z" fill="#2F2E41"/>
<path d="M976.891 267.779L974.167 317.94L980.976 372.492L960.55 375L947.613 306.027L943.528 259L976.891 267.779Z" fill="#2F2E41"/>
<path d="M1010.04 249.578C1010.04 249.578 1018.35 298.862 1001.03 315.083C983.71 331.303 960.155 360 960.155 360L943.528 341.284L985.789 300.734L977.475 273.284L943.528 258.936L949.07 224.624L998.952 224L1010.04 249.578Z" fill="#2F2E41"/>
<path d="M971.386 135C980.718 135 988.283 128.06 988.283 119.5C988.283 110.94 980.718 104 971.386 104C962.053 104 954.488 110.94 954.488 119.5C954.488 128.06 962.053 135 971.386 135Z" fill="#FFB8B8"/>
<path d="M985.205 141L987.789 144.56L994.677 162.099L989.167 230.373L956.794 231L952.661 152.703L961.319 142.862L985.205 141Z" fill="#CCCCCC"/>
<path d="M940.196 154.627L934.609 154C934.609 154 933.212 154.627 932.513 159.02C931.815 163.412 923.433 202.314 923.433 202.314L934.609 250L947.181 234.941L939.498 208.588L947.181 182.235L940.196 154.627Z" fill="#2F2E41"/>
<path d="M1010.29 154H1014.44L1024.82 204.625L1015.13 244L1005.44 229.625L1008.21 214L1006.83 200.25L1001.98 192.124L1010.29 154Z" fill="#2F2E41"/>
<path d="M981.412 119.162L978.37 118.483C978.37 118.483 976.088 106.934 970.763 108.293C965.439 109.651 951.748 111.01 951.748 105.576C951.748 100.141 964.678 95.3856 972.285 96.0649C979.891 96.7442 989.605 98.9979 992.061 108.972C995.997 124.961 983.939 129 983.939 129L984.139 128.418C984.697 126.801 984.736 125.078 984.254 123.442C983.772 121.807 982.788 120.324 981.412 119.162Z" fill="#2F2E41"/>
<path d="M935.307 154.444L957.333 146.315L962.496 142.876L977.983 205.093L988.307 176.955L985.21 141L1013.78 154.444L1004.14 196.964L1002.76 213.222L1006.89 226.353C1006.89 226.353 1021.35 235.733 1016.53 245.737C1011.71 255.742 1006.2 256.367 1006.2 256.367C1006.2 256.367 982.801 236.358 981.424 231.356C980.048 226.353 977.983 217.599 977.983 217.599C977.983 217.599 966.281 257.618 952.515 256.993C938.749 256.367 938.749 243.236 938.749 243.236L942.19 229.48L947.697 215.098L944.944 191.336L935.307 154.444Z" fill="#2F2E41"/>
</svg>
