<svg xmlns="http://www.w3.org/2000/svg" xmlns:xlink="http://www.w3.org/1999/xlink" width="124" height="45" viewBox="0 0 124 45">
  <defs>
    <clipPath id="clip-path">
      <rect id="Rectangle_1504" data-name="Rectangle 1504" width="119.851" height="29.607" fill="none"/>
    </clipPath>
    <clipPath id="clip-logo-ativa">
      <rect width="124" height="45"/>
    </clipPath>
  </defs>
  <g id="logo-ativa" clip-path="url(#clip-logo-ativa)">
    <rect width="124" height="45" fill="transparent"/>
    <g id="Group_4519" data-name="Group 4519" transform="translate(2.074 7.696)">
      <g id="Group_4133" data-name="Group 4133" clip-path="url(#clip-path)">
        <path id="Path_7500" data-name="Path 7500" d="M104.012,18.967c0-3.29,2.193-5.6,5.28-5.6,3.046,0,5.28,2.356,5.28,5.767,0,3.29-2.193,5.6-5.28,5.6-3.046,0-5.28-2.356-5.28-5.767m-5.6.081c0,5.889,4.1,10.56,9.5,10.56a6.977,6.977,0,0,0,6.051-3.087c.244-.366.569-.244.609.081l.406,2.6h4.874V8.894h-4.874l-.406,2.518c-.041.325-.366.447-.609.081a6.864,6.864,0,0,0-6.051-3.005c-5.28,0-9.5,4.468-9.5,10.56M76.354,8.894,82.771,29.2h8.854L98.042,8.894H92.478L87.685,25.3c-.122.406-.528.406-.65,0L82.284,8.894ZM68.881,29.2h5.442V8.894H68.881ZM68.312,3.249A3.168,3.168,0,0,0,71.6,6.5a3.216,3.216,0,0,0,3.29-3.249A3.168,3.168,0,0,0,71.6,0a3.216,3.216,0,0,0-3.29,3.249M54.788,22.013c0,4.874,2.843,7.189,7.473,7.189h3.452V24.49H62.789c-1.665,0-2.559-.853-2.559-2.68V14.093a.469.469,0,0,1,.487-.487h5V8.894h-5a.469.469,0,0,1-.487-.487V1.218L54.788,2.924ZM35.456,18.967c0-3.29,2.193-5.6,5.28-5.6,3.046,0,5.28,2.356,5.28,5.767,0,3.29-2.193,5.6-5.28,5.6-3.046,0-5.28-2.356-5.28-5.767m-5.6.081c0,5.889,4.1,10.56,9.5,10.56a6.977,6.977,0,0,0,6.051-3.087c.244-.366.569-.244.609.081l.406,2.6H51.3V8.894H46.422l-.406,2.518c-.041.325-.366.447-.609.081a6.864,6.864,0,0,0-6.051-3.005c-5.28,0-9.5,4.468-9.5,10.56M10.478,29.12l14.7-5.564c.406-.162.487-.406.487-.853V14.174c0-.406-.284-.528-.69-.366L11.413,18.967c-.487.2-.731-.284-.406-.609l4.021-4.1a.384.384,0,0,0-.284-.69H.487A.469.469,0,0,0,0,14.052v5.036a.469.469,0,0,0,.487.487H9.3a.469.469,0,0,1,.487.487v8.691c0,.406.284.528.69.366" fill="#e0ff4b"/>
      </g>
    </g>
  </g>
</svg>
