<svg width="460" height="337" viewBox="0 0 460 337" fill="none" xmlns="http://www.w3.org/2000/svg">
<path d="M405.668 31.4229H12.1146V234.278H405.668V31.4229Z" fill="white"/>
<path d="M417.427 0H0V16.5027H417.427V0Z" fill="#D9B13D"/>
<path d="M148.999 52.4708H47.8743V213.23H148.999V52.4708Z" fill="#E6E6E6"/>
<path d="M250.725 52.4708H166.455V96.7217H250.725V52.4708Z" fill="#D9B13D"/>
<path d="M250.725 109.045H166.455V156.657H250.725V109.045Z" fill="#E6E6E6"/>
<path d="M250.725 168.98H166.455V213.23H250.725V168.98Z" fill="#E6E6E6"/>
<path d="M369.909 52.4708H268.784V122.529H369.909V52.4708Z" fill="#E6E6E6"/>
<path d="M369.909 143.172H268.784V213.231H369.909V143.172Z" fill="#E6E6E6"/>
<path d="M330.952 127.562V112.479C330.952 107.119 333.24 101.978 337.313 98.1883C341.386 94.3978 346.911 92.2687 352.671 92.2687C358.431 92.2687 363.955 94.3978 368.028 98.1883C372.101 101.978 374.39 107.119 374.39 112.479V127.562C374.388 128.282 374.081 128.972 373.534 129.48C372.987 129.989 372.246 130.276 371.472 130.277H333.87C333.096 130.276 332.355 129.989 331.807 129.48C331.26 128.972 330.953 128.282 330.952 127.562Z" fill="#2F2E41"/>
<path d="M384.785 323.843L377.125 325.816L365.302 299.26L376.608 296.348L384.785 323.843Z" fill="#FFB8B8"/>
<path d="M371.047 325.189L385.82 321.384L388.395 330.04L364.32 336.24C363.982 335.103 363.888 333.916 364.043 332.746C364.198 331.575 364.599 330.444 365.224 329.418C365.848 328.392 366.685 327.49 367.684 326.764C368.683 326.039 369.826 325.503 371.047 325.189Z" fill="#2F2E41"/>
<path d="M304.921 329.327H296.973L293.191 300.798H304.923L304.921 329.327Z" fill="#FFB8B8"/>
<path d="M291.296 327.213H306.625V336.194H281.644C281.644 335.015 281.894 333.847 282.379 332.758C282.864 331.667 283.575 330.677 284.471 329.844C285.367 329.009 286.431 328.348 287.602 327.897C288.773 327.446 290.028 327.213 291.296 327.213Z" fill="#2F2E41"/>
<path d="M295.337 169.888C295.905 170.601 296.633 171.189 297.471 171.611C298.309 172.033 299.236 172.28 300.187 172.333C301.139 172.385 302.092 172.243 302.977 171.916C303.863 171.59 304.661 171.086 305.316 170.441L326.445 179.285L324.523 168.225L304.754 161.523C303.516 160.572 301.947 160.077 300.344 160.13C298.74 160.183 297.213 160.782 296.052 161.814C294.892 162.845 294.178 164.236 294.046 165.724C293.914 167.212 294.373 168.694 295.337 169.888Z" fill="#FFB8B8"/>
<path d="M339.238 236.395C332.6 236.395 325.727 235.475 319.951 232.738C316.884 231.314 314.167 229.316 311.968 226.87C309.77 224.424 308.137 221.581 307.173 218.521C304.164 209.653 307.958 200.941 311.628 192.516C313.902 187.295 316.05 182.364 316.608 177.503L316.802 175.778C317.67 168.026 318.42 161.333 322.57 158.822C324.721 157.521 327.614 157.446 331.414 158.594L367.1 169.382L365.788 232.421L365.571 232.488C365.384 232.547 352.804 236.395 339.238 236.395Z" fill="#2F2E41"/>
<path d="M330.789 138.969C330.789 138.969 348.294 134.143 361.908 135.952C361.908 135.952 354.129 175.77 356.722 189.043C359.315 202.316 311.664 194.171 321.389 181.502L324.63 166.419C324.63 166.419 318.147 160.386 323.982 153.147L330.789 138.969Z" fill="#D9B13D"/>
<path d="M322.179 235.2L300.606 231.436L308.138 177.496C308.645 175.991 320.312 141.815 325.611 139.966C329.459 138.705 333.393 137.688 337.389 136.921L338.156 136.778L333.83 142.817L316.608 181.219L322.179 235.2Z" fill="#2F2E41"/>
<path d="M310.939 322.717L283.065 318.394L298.707 258.954L321.984 177.667L322.213 179.11C322.232 179.218 324.407 189.837 356.672 185.125L356.956 185.084L357.035 185.341L396.032 313.565L364.27 318.491L335.302 224.939L310.939 322.717Z" fill="#2F2E41"/>
<path d="M349.574 245.294L349.591 244.837C349.611 244.331 351.529 193.936 350.888 173.668C350.245 153.331 357.321 135.72 357.392 135.544L357.45 135.403L357.606 135.361C366.76 132.928 374.701 140.191 374.78 140.264L374.892 140.368L372.285 160.383L383.446 233.166L349.574 245.294Z" fill="#2F2E41"/>
<path d="M348.208 129.926C357.001 129.926 364.131 123.292 364.131 115.108C364.131 106.924 357.001 100.29 348.208 100.29C339.413 100.29 332.284 106.924 332.284 115.108C332.284 123.292 339.413 129.926 348.208 129.926Z" fill="#FFB8B8"/>
<path d="M325.813 113.686C325.819 109.447 327.631 105.383 330.852 102.386C334.072 99.3889 338.439 97.7033 342.994 97.6984H346.235C350.791 97.7033 355.158 99.3889 358.378 102.386C361.599 105.383 363.411 109.447 363.416 113.686V113.988H356.566L354.229 107.899L353.762 113.988H350.221L349.043 110.916L348.807 113.988H325.813V113.686Z" fill="#2F2E41"/>
<path d="M346.641 131.973C346.318 131.568 346.127 131.086 346.086 130.584C346.046 130.081 346.159 129.578 346.412 129.133C349.847 123.053 354.657 111.818 348.272 104.89L347.814 104.392H366.348V130.285L349.511 133.049C349.341 133.078 349.168 133.092 348.995 133.092C348.535 133.092 348.082 132.991 347.673 132.796C347.264 132.601 346.91 132.319 346.641 131.973Z" fill="#2F2E41"/>
<path d="M272.021 25.0647C259.052 14.8816 243.182 8.42506 226.342 6.48183C209.502 4.5386 192.417 7.19191 177.168 14.119C161.919 21.0467 149.163 31.949 140.451 45.4997C131.739 59.0504 127.447 74.6657 128.098 90.445C128.749 106.224 134.315 121.487 144.117 134.377C153.92 147.266 167.538 157.226 183.312 163.046C199.087 168.864 216.34 170.291 232.97 167.152C249.601 164.013 264.892 156.444 276.984 145.365L384.357 229.675C385.991 230.96 388.106 231.589 390.238 231.422C392.37 231.257 394.343 230.309 395.725 228.788C397.106 227.268 397.781 225.3 397.603 223.316C397.424 221.332 396.406 219.496 394.773 218.21L394.761 218.201L287.388 133.891C299.861 117.232 305.2 96.8388 302.357 76.7078C299.515 56.5769 288.696 38.1599 272.021 25.0647ZM265.099 125.772C256.734 134.998 245.618 141.707 233.155 145.053C220.692 148.399 207.443 148.23 195.083 144.569C182.724 140.908 171.808 133.918 163.717 124.484C155.626 115.05 150.723 103.595 149.628 91.5677C148.533 79.5403 151.295 67.4809 157.565 56.9147C163.836 46.3485 173.332 37.7497 184.853 32.2054C196.375 26.6616 209.405 24.4216 222.295 25.7687C235.185 27.1153 247.356 31.9894 257.27 39.7732C263.852 44.9416 269.276 51.266 273.231 58.385C277.187 65.5039 279.597 73.2781 280.325 81.2639C281.051 89.2498 280.081 97.2906 277.469 104.927C274.856 112.564 270.653 119.647 265.099 125.772Z" fill="#3F3D56"/>
<path opacity="0.3" d="M172.682 133.059C160.101 123.178 151.973 109.257 149.911 94.0582C147.849 78.8598 152.006 63.4956 161.554 51.0163C160.3 52.1915 159.088 53.4217 157.917 54.7085C152.363 60.8332 148.16 67.9166 145.548 75.5531C142.935 83.1903 141.965 91.2311 142.692 99.217C143.419 107.202 145.829 114.977 149.785 122.096C153.741 129.215 159.164 135.539 165.747 140.708C172.329 145.876 179.94 149.787 188.147 152.218C196.354 154.649 204.995 155.552 213.576 154.876C222.158 154.199 230.512 151.956 238.162 148.275C245.813 144.594 252.609 139.547 258.163 133.422C259.331 132.134 260.43 130.815 261.462 129.465C249.849 140.323 234.273 146.72 217.826 147.386C201.38 148.051 185.265 142.937 172.682 133.059Z" fill="black"/>
<path d="M353.32 195.793C354.245 196.003 355.21 196.022 356.144 195.849C357.079 195.675 357.962 195.313 358.729 194.788C359.497 194.262 360.132 193.587 360.589 192.809C361.046 192.03 361.314 191.168 361.374 190.283L383.698 184.517L374.623 177.154L354.816 183.759C353.211 183.763 351.665 184.315 350.468 185.31C349.271 186.305 348.509 187.674 348.324 189.158C348.14 190.64 348.546 192.135 349.467 193.358C350.388 194.581 351.759 195.448 353.32 195.793Z" fill="#FFB8B8"/>
<path d="M362.598 192.741L361.24 180.731L379.887 171.157L367.73 157.463L369.713 142.078L374.653 140.108L374.807 140.292C377.136 143.079 397.566 167.61 397.566 170.642C397.566 173.757 393.658 182.903 388.31 185.391C383.152 187.791 363.784 192.456 362.963 192.654L362.598 192.741Z" fill="#2F2E41"/>
<path d="M459.352 337H212.345C212.173 337 212.008 336.937 211.887 336.823C211.765 336.71 211.697 336.557 211.697 336.397C211.697 336.237 211.765 336.083 211.887 335.97C212.008 335.857 212.173 335.793 212.345 335.793H459.352C459.527 335.793 459.689 335.857 459.812 335.97C459.935 336.083 460 336.237 460 336.397C460 336.557 459.935 336.71 459.812 336.823C459.689 336.937 459.527 337 459.352 337Z" fill="#CCCCCC"/>
<path d="M398.157 5.42969H391.583V11.5479H398.157V5.42969Z" fill="white"/>
<path d="M385.1 7.8429H378.617V9.04964H385.1V7.8429Z" fill="white"/>
<path d="M408.597 6.03238L404.55 10.7459L405.563 11.4991L409.61 6.78561L408.597 6.03238Z" fill="white"/>
<path d="M405.563 6.03237L409.61 10.7459L408.597 11.4991L404.55 6.7856L405.563 6.03237Z" fill="white"/>
<path d="M208.434 92.9082C218.996 92.9082 227.559 84.9401 227.559 75.1108C227.559 65.2816 218.996 57.3135 208.434 57.3135C197.871 57.3135 189.308 65.2816 189.308 75.1108C189.308 84.9401 197.871 92.9082 208.434 92.9082Z" fill="white"/>
<path d="M207.939 86.0801V63.8647H209.468V86.0801H207.939ZM213.087 70.5294C212.975 69.6504 212.521 68.9675 211.725 68.4818C210.93 67.9955 209.953 67.7524 208.797 67.7524C207.952 67.7524 207.212 67.8797 206.578 68.1343C205.95 68.3889 205.459 68.7388 205.105 69.1847C204.756 69.6299 204.582 70.1361 204.582 70.7032C204.582 71.1774 204.703 71.5852 204.946 71.9267C205.195 72.2621 205.512 72.5426 205.897 72.7683C206.283 72.9885 206.686 73.1707 207.109 73.3148C207.532 73.4542 207.921 73.567 208.275 73.6533L210.215 74.1396C210.712 74.2608 211.266 74.4285 211.874 74.6427C212.49 74.8569 213.078 75.1489 213.637 75.5193C214.203 75.8837 214.669 76.3525 215.036 76.925C215.402 77.4981 215.586 78.201 215.586 79.0341C215.586 79.994 215.316 80.8621 214.775 81.6374C214.24 82.4126 213.457 83.0286 212.425 83.4853C211.399 83.9426 210.152 84.1712 208.685 84.1712C207.317 84.1712 206.133 83.9655 205.132 83.5553C204.137 83.1444 203.354 82.5713 202.782 81.8371C202.216 81.1023 201.897 80.2486 201.822 79.2767H204.209C204.272 79.9481 204.514 80.5032 204.937 80.943C205.365 81.3768 205.907 81.7007 206.559 81.9149C207.218 82.123 207.927 82.2274 208.685 82.2274C209.568 82.2274 210.361 82.0941 211.063 81.828C211.766 81.5559 212.322 81.1801 212.733 80.6999C213.143 80.2142 213.348 79.6471 213.348 78.9991C213.348 78.4091 213.171 77.9289 212.816 77.5585C212.462 77.1886 211.996 76.8876 211.418 76.6559C210.84 76.4249 210.215 76.2222 209.543 76.0484L207.193 75.424C205.701 75.0246 204.52 74.4551 203.65 73.7142C202.779 72.974 202.344 72.0045 202.344 70.8075C202.344 69.8121 202.633 68.9445 203.212 68.2037C203.796 67.4574 204.579 66.8788 205.561 66.4686C206.55 66.0517 207.653 65.8436 208.872 65.8436C210.102 65.8436 211.197 66.0487 212.154 66.4595C213.112 66.8644 213.871 67.42 214.43 68.1259C214.995 68.8317 215.294 69.6329 215.325 70.5294H213.087Z" fill="#D9B13D"/>
</svg>
